Genre:Crime | Thriller
Language:English
IMDb:http://www.imdb.com/title/tt1242432/
Source:BluRay 720p x264-DEPRAViTY
Subtitles:Romana


Format : MPEG-4
Format profile : Base Media
Codec ID : isom
File size : 1.92 GiB
Duration : 1h 48mn
Overall bit rate : 2 536 Kbps
Movie name : I.Spit.On.Your.Grave.UNRATED.2010.LIMITED.720p.BRRip.x264.Feel-Free


Video
Format settings, CABAC : Yes
Format settings, ReFrames : 4 frames
Format settings, GOP : M=4, N=32
Codec ID : avc1
Codec ID/Info : Advanced Video Coding
Duration : 1h 48mn
Bit rate mode : Variable
Bit rate : 2 200 Kbps
Width : 1 280 pixels
Height : 544 pixels
Display aspect ratio : 2.35:1
Frame rate mode : Constant
Frame rate : 23.976 fps
Color space : YUV
Chroma subsampling : 4:2:0
Bit depth : 8 bits
Scan type : Progressive
Bits/(Pixel*Frame) : 0.132
Stream size : 1.62 GiB (85%)
Writing library : x264

Audio
ID : 2
Format : AAC
Format/Info : Advanced Audio Codec
Format version : Version 4
Format profile : LC
Codec ID : 40
Duration : 1h 48mn
Bit rate mode : Variable
Bit rate : 384 Kbps
Channel(s) : 6 channels
Channel positions : Front: L C R, Side: L R, LFE
Sampling rate : 48.0 KHz
Stream size : 297 MiB (15%)



Plot:
A writer who is brutalized during her cabin retreat seeks revenge on her attackers, who left her for dead
 
http://rapidhdd.com/images/694290vlcsnap-00001.png
 
http://www.rapidhdd.com/images/565711vlcsnap-00002.png
 
http://www.rapidhdd.com/images/864775vlcsnap-00005.png
 
http://www.rapidhdd.com/images/458608vlcsnap-00006.png
 
http://www.rapidhdd.com/images/289681vlcsnap-00004.png

